<svg width="627" height="270" viewBox="0 0 627 270" fill="none" xmlns="http://www.w3.org/2000/svg">
<g clip-path="url(#clip0_201_769)">
<g opacity="0.33">
<path d="M656.584 224.991L626.767 269.66L596.931 224.991H656.584Z" stroke="#4F61E0" stroke-miterlimit="10" stroke-linejoin="round"/>
<path d="M567.113 269.66L626.767 180.34L686.402 269.66H567.113Z" stroke="#4F61E0" stroke-miterlimit="10" stroke-linejoin="round"/>
<path d="M537.296 224.991L507.46 269.66L477.643 224.991H537.296Z" stroke="#4F61E0" stroke-miterlimit="10" stroke-linejoin="round"/>
<path d="M537.296 224.991L567.113 180.34L596.931 224.991H537.296Z" stroke="#4F61E0" stroke-miterlimit="10" stroke-linejoin="round"/>
<path d="M447.825 269.66L507.46 180.34L567.113 269.66H447.825Z" stroke="#4F61E0" stroke-miterlimit="10" stroke-linejoin="round"/>
<path d="M626.767 180.34L567.113 269.66L507.46 180.34H626.767Z" stroke="#4F61E0" stroke-miterlimit="10" stroke-linejoin="round"/>
<path d="M686.402 91L626.767 180.34L567.113 91H686.402Z" stroke="#4F61E0" stroke-miterlimit="10" stroke-linejoin="round"/>
<path d="M596.931 135.67L626.767 91L656.584 135.67H596.931Z" stroke="#4F61E0" stroke-miterlimit="10" stroke-linejoin="round"/>
<path d="M596.931 135.67L567.113 180.34L537.296 135.67H596.931Z" stroke="#4F61E0" stroke-miterlimit="10" stroke-linejoin="round"/>
<path d="M507.46 180.34L567.113 91L626.767 180.34H507.46Z" stroke="#4F61E0" stroke-miterlimit="10" stroke-linejoin="round"/>
<path d="M417.989 224.991L388.172 269.66L358.354 224.991H417.989Z" stroke="#4F61E0" stroke-miterlimit="10" stroke-linejoin="round"/>
<path d="M298.701 224.991L268.883 269.66L239.066 224.991H298.701Z" stroke="#4F61E0" stroke-miterlimit="10" stroke-linejoin="round"/>
<path d="M60.1244 224.991L30.2883 269.66L0.470886 224.991H60.1244Z" stroke="#4F61E0" stroke-miterlimit="10" stroke-linejoin="round"/>
<path d="M417.989 224.991L447.825 180.34L477.642 224.991H417.989Z" stroke="#4F61E0" stroke-miterlimit="10" stroke-linejoin="round"/>
<path d="M328.518 269.66L388.172 180.34L447.825 269.66H328.518Z" stroke="#4F61E0" stroke-miterlimit="10" stroke-linejoin="round"/>
<path d="M209.23 269.66L268.883 180.34L328.518 269.66H209.23Z" stroke="#4F61E0" stroke-miterlimit="10" stroke-linejoin="round"/>
<path d="M89.9417 269.66L149.595 180.34L209.23 269.66H89.9417Z" stroke="#4F61E0" stroke-miterlimit="10" stroke-linejoin="round"/>
<path d="M507.46 180.34L447.825 269.66L388.172 180.34H507.46Z" stroke="#4F61E0" stroke-miterlimit="10" stroke-linejoin="round"/>
<path d="M567.113 91L507.46 180.34L447.825 91H567.113Z" stroke="#4F61E0" stroke-miterlimit="10" stroke-linejoin="round"/>
<path d="M477.643 135.67L507.46 91L537.296 135.67H477.643Z" stroke="#4F61E0" stroke-miterlimit="10" stroke-linejoin="round"/>
<path d="M477.642 135.67L447.825 180.34L417.989 135.67H477.642Z" stroke="#4F61E0" stroke-miterlimit="10" stroke-linejoin="round"/>
<path d="M417.989 135.67L388.172 180.34L358.354 135.67H417.989Z" stroke="#4F61E0" stroke-miterlimit="10" stroke-linejoin="round"/>
<path d="M358.354 135.67L328.518 180.34L298.701 135.67H358.354Z" stroke="#4F61E0" stroke-miterlimit="10" stroke-linejoin="round"/>
<path d="M388.172 180.34L447.825 91L507.46 180.34H388.172Z" stroke="#4F61E0" stroke-miterlimit="10" stroke-linejoin="round"/>
</g>
<path d="M448 270L627 0V270H448Z" fill="#5050E5"/>
</g>
<defs>
<clipPath id="clip0_201_769">
<rect width="627" height="270" fill="white"/>
</clipPath>
</defs>
</svg>
