<svg width="378" height="91" viewBox="0 0 378 91" fill="none" xmlns="http://www.w3.org/2000/svg">
<path d="M60.1411 0.567261L0 90.64C11.0594 90.64 21.7543 87.1792 28.8899 82.127C36.1587 76.9821 42.0559 72.8269 42.0559 72.8269C40.939 70.0143 40.4587 66.8776 40.8001 63.5962C41.7839 54.2151 49.5967 46.7842 59.0184 46.2518C70.2688 45.621 79.592 54.5565 79.592 65.6738C79.592 68.2029 79.1059 70.6103 78.2263 72.8269C78.2263 72.8269 83.8052 76.7622 91.5311 82.208C98.6495 87.2313 109.286 90.64 120.276 90.64L60.1411 0.567261Z" fill="#96B8EA"/>
<path d="M24.7405 90.64H95.5475L66.6865 70.2862C62.7627 67.5199 57.5253 67.5199 53.6015 70.2862L24.7405 90.64Z" fill="#5050E5"/>
<path d="M150.399 39.3823V13.9821H151.8V38.1207H164.722V39.3823H150.399Z" fill="#2B5472"/>
<path d="M176.673 39.6022C171.407 39.6022 168.004 35.7074 168.004 29.6829V13.9821H169.404V29.5324C169.404 35.0419 172.119 38.3348 176.667 38.3348C181.216 38.3348 183.901 34.9609 183.901 29.5324V13.9821H185.302V29.6771C185.302 35.7016 181.911 39.5965 176.667 39.5965L176.673 39.6022Z" fill="#2B5472"/>
<path d="M214.481 39.3823V22.4257L214.672 16.4995L204.608 31.8242L204.07 31.7721L194.07 16.4995L194.266 22.4257V39.3823H192.86V13.9821H194.128L204.406 29.654L214.747 13.93L215.882 13.9821V39.3823H214.481Z" fill="#2B5472"/>
<path d="M225.037 13.9821H223.637V39.3823H225.037V13.9821Z" fill="#2B5472"/>
<path d="M249.066 39.3823L233.909 16.0481L233.932 16.4764C234.054 18.9533 234.106 21.1004 234.106 23.6526V39.3823H232.705V13.9821H234.135L249.286 37.2758L249.263 36.8417C249.118 34.2259 249.095 31.6448 249.095 29.4572V13.9821H250.495V39.3823H249.066Z" fill="#2B5472"/>
<path d="M269.043 39.6022C261.786 39.6022 256.908 34.44 256.908 26.7603C256.908 19.0806 261.786 13.7737 269.043 13.7737C276.301 13.7737 281.15 18.9938 281.15 26.7603C281.15 34.5268 276.283 39.6022 269.043 39.6022ZM269.043 15.0701C262.66 15.0701 258.372 19.7693 258.372 26.7603C258.372 33.7513 262.66 38.3059 269.043 38.3059C275.427 38.3059 279.68 33.7745 279.68 26.7603C279.68 19.7462 275.508 15.0701 269.043 15.0701Z" fill="#2B5472"/>
<path d="M295.966 39.6022C290.699 39.6022 287.296 35.7074 287.296 29.6829V13.9821H288.697V29.5324C288.697 35.0419 291.411 38.3348 295.96 38.3348C300.509 38.3348 303.194 34.9609 303.194 29.5324V13.9821H304.595V29.6771C304.595 35.7016 301.203 39.5965 295.96 39.5965L295.966 39.6022Z" fill="#2B5472"/>
<path d="M318.825 39.6022C314.479 39.6022 311.528 37.5131 309.815 35.7595L309.768 35.7132L310.688 34.5847L310.746 34.6484C313.015 37.1195 315.729 38.3754 318.825 38.3754C322.94 38.3754 325.296 36.4308 325.296 33.0395C325.296 29.3588 322.124 28.3055 317.98 27.3043C314.572 26.471 310.654 24.9084 310.654 20.1629C310.654 16.1639 313.501 13.7795 318.264 13.7795C321.655 13.7795 324.624 15.2437 326.274 16.6095L326.326 16.65L325.55 17.819L325.486 17.767C324.717 17.1188 321.933 15.0064 318.362 15.0064C316.898 15.0064 312.124 15.3768 312.124 20.1282C312.124 23.9246 315.289 25.0763 318.814 26.008C322.836 27.0671 326.765 28.4849 326.765 33.0395C326.765 37.1485 323.797 39.608 318.825 39.608V39.6022Z" fill="#2B5472"/>
<path d="M161.314 78.1395C153.976 78.1395 149.045 72.9657 149.045 65.2571C149.045 57.5485 153.976 52.3053 161.314 52.3053C164.78 52.3053 167.639 53.4396 169.827 55.6792L169.873 55.7255L168.953 56.8135L168.895 56.7557C167.454 55.3146 164.96 53.6016 161.279 53.6016C154.739 53.6016 150.509 58.1446 150.509 65.1819C150.509 72.2192 154.838 76.8316 161.279 76.8316C164.155 76.8316 166.829 75.6742 169.225 73.3882L169.283 73.3361L170.134 74.3836L170.087 74.4299C167.79 76.7795 164.589 78.128 161.308 78.128L161.314 78.1395Z" fill="#2B5472"/>
<path d="M185.626 78.1395C178.369 78.1395 173.49 72.9773 173.49 65.2976C173.49 57.6179 178.369 52.311 185.626 52.311C192.883 52.311 197.733 57.5311 197.733 65.2976C197.733 73.0641 192.866 78.1395 185.626 78.1395ZM185.626 53.6074C179.243 53.6074 174.954 58.3066 174.954 65.2976C174.954 72.2886 179.243 76.8432 185.626 76.8432C192.009 76.8432 196.263 72.3118 196.263 65.2976C196.263 58.2835 192.09 53.6074 185.626 53.6074Z" fill="#2B5472"/>
<path d="M225.778 77.9196V60.963L225.969 55.0368L215.905 70.3615L215.372 70.3094L205.372 55.031L205.563 60.963V77.9196H204.163V52.5194H205.424L215.702 68.1912L226.044 52.4673L227.178 52.5194V77.9196H225.778Z" fill="#2B5472"/>
<path d="M234.945 77.9197V52.5194H244.338C249.517 52.5194 252.313 56.6457 252.313 60.529C252.313 64.4122 249.517 68.5385 244.338 68.5385H236.345V77.9197H234.945ZM236.345 67.2769H244.106C249.101 67.2769 250.877 63.6425 250.877 60.529C250.877 57.4154 249.106 53.781 244.106 53.781H236.345V67.2711V67.2769Z" fill="#2B5472"/>
<path d="M269.061 78.1395C261.804 78.1395 256.925 72.9773 256.925 65.2976C256.925 57.6179 261.804 52.311 269.061 52.311C276.318 52.311 281.168 57.5311 281.168 65.2976C281.168 73.0641 276.301 78.1395 269.061 78.1395ZM269.061 53.6074C262.677 53.6074 258.389 58.3066 258.389 65.2976C258.389 72.2886 262.677 76.8432 269.061 76.8432C275.444 76.8432 279.698 72.3118 279.698 65.2976C279.698 58.2835 275.525 53.6074 269.061 53.6074Z" fill="#2B5472"/>
<path d="M295.989 78.1395C290.723 78.1395 287.32 74.2447 287.32 68.2202V52.5252H288.72V68.0755C288.72 73.585 291.434 76.8779 295.983 76.8779C300.532 76.8779 303.217 73.504 303.217 68.0755V52.5252H304.618V68.2202C304.618 74.2447 301.226 78.1395 295.983 78.1395H295.989Z" fill="#2B5472"/>
<path d="M328.548 77.9197L313.391 54.5855L313.414 55.0137C313.536 57.4907 313.588 59.6377 313.588 62.1899V77.9197H312.187V52.5194H313.617L328.768 75.8131L328.745 75.3791C328.6 72.7632 328.577 70.1821 328.577 67.9945V52.5194H329.977V77.9197H328.548Z" fill="#2B5472"/>
<path d="M337.721 77.9197V52.5194H346.025C352.49 52.5194 357.004 57.7742 357.004 65.2919C357.004 72.8095 352.594 77.9197 346.025 77.9197H337.721ZM339.121 76.658H345.759C351.697 76.658 355.534 72.1556 355.534 65.1877C355.534 58.2199 351.616 53.7868 345.788 53.7868H339.115V76.658H339.121Z" fill="#2B5472"/>
<path d="M370.06 78.1395C365.714 78.1395 362.762 76.0503 361.049 74.2968L361.003 74.2505L361.923 73.122L361.981 73.1856C364.25 75.6626 366.964 76.9126 370.06 76.9126C374.175 76.9126 376.53 74.9681 376.53 71.571C376.53 67.8903 373.359 66.837 369.215 65.8358C365.806 65.0025 361.888 63.4399 361.888 58.6944C361.888 54.6954 364.736 52.311 369.499 52.311C372.89 52.311 375.859 53.7752 377.508 55.141L377.56 55.1815L376.785 56.3505L376.721 56.2985C375.951 55.6503 373.168 53.5379 369.597 53.5379C368.133 53.5379 363.358 53.9083 363.358 58.6596C363.358 62.4561 366.524 63.6077 370.048 64.5395C374.07 65.5986 378 67.0164 378 71.571C378 75.68 375.031 78.1395 370.06 78.1395Z" fill="#2B5472"/>
</svg>
